<html>
<head>
<meta charset="UTF-8">
<meta name="viewport" content="width=device-width, initial-scale=1.0"/>

<style>
.comment
{
    padding-left: 20px;
    margin-top: 4px;
    margin-right: 4px;
    margin-bottom: 4px;
    border: 2px #000 solid;
}
.submission
{
    border: 4px #00f solid;
    padding-left: 20px;
}
.hidden
{
    display: none;
}
</style>
</head>
<body><div class="submission" id="t3_6sehe2">
    <p class="userinfo">
        <a href="https://www.reddit.com/u/Ed_ButteredToast">Ed_ButteredToast</a>
        <span class="score"> | 13 points</span>
        <span class="timestamp"> | Aug 08 2017 16:07:06</span>
    </p>
    <strong>[MUSIC] Halsey - 'hopeless fountain kingdom' (Deluxe 2017) - 'BADLANDS' (Deluxe 2015) - [FLAC] [16 Bit 44.1kHz 2CH] [339.4MB/378.5MB]</strong>
    <p><h6>https://itunes.apple.com/us/album/badlands-deluxe-edition/id999626332</h6>
<h6>https://itunes.apple.com/us/album/hopeless-fountain-kingdom-deluxe/id1221749987</h6>
<h1><a href="http://links.snahp.it/420.">LINK HERE</a></h1>
<p><strong>Note</strong>: <em>Password to the Snahp.it link</em> <strong><em>and</em></strong> <em>the rar files is the same and is the name of the artist</em> <strong><em>"halsey"</em></strong> <em>spelled backwards e.g WEBSITE = ETISBEW. Also when you access the MEGA link, replace "xxxx" with "mega". There will be 2 FLAC folders</em>. <strong><em>Folder1 FLAC</em></strong> <em>is the album</em> <strong><em>"hopless fountain kingdom"</em></strong> <em>(Deluxe 2017) and</em> <strong><em>folder2 FLAC</em></strong> is <strong><em>"BADLANDS"</em></strong> <em>(Deluxe 2015). There are 4 password protected RAR files in both of these folders. Use the password (same for all parts) and extracting part 1 will automatically extract all the other parts too and in the end you'll be left with a 16 FLAC files in both folders plus 3 nice wallpapers that i included in the rar pack.</em></p>
<h1>Link Encoded in Base64</h1>
<p>1= <code>aHR0cHM6Ly94eHh4Lm56LyNGIUJ1NHowSVpK</code></p>
<p>2= <code>ITI3T3hBRHc3Vm9YdkEyaXBvNUpFN3c=</code></p>
<p><strong>How to decode?</strong></p>
<p><em>Go to https://www.base64decode.org and paste 1 and 2 (without any space) where it says "Type or (paste) here..." and click decode. You'll receive a link in the lower box. In that link, replace xxxx with MEGA.</em></p>
<h1><a href="https://www.reddit.com/r/megalinks/comments/6s9k72/music_halsey_hopeless_fountain_kingdom_deluxe/">For MP3 320KBPS quality, click here.</a></h1>
<h2>---</h2>
<h2>---</h2>
<h2>---</h2>
<h2>---</h2>
<h2>---</h2>
<h1><code>General</code></h1>
<p><code>Complete name                  : 03. Eyes Closed.flac</code></p>
<p><code>Format                         : FLAC</code></p>
<p><code>Format/Info                    : Free Lossless Audio Codec</code></p>
<p><code>File size                      : 23.3 MiB</code></p>
<p><code>Duration                       : 3mn 22s</code></p>
<p><code>Overall bit rate mode          : Variable</code></p>
<p><code>Overall bit rate               : 966 Kbps</code></p>
<p><code>Album                          : hopeless fountain kingdom (Deluxe)</code></p>
<p><code>Part                           : 1/1</code></p>
<p><code>Track name                     : Eyes Closed</code></p>
<p><code>Track name/Position            : 03</code></p>
<p><code>Performer                      : Halsey</code></p>
<p><code>Genre                          : Pop</code></p>
<p><code>Recorded date                  : 2017</code></p>
<p><code>Cover                          : Yes</code></p>
<p><code>Cover type                     : Cover (front)</code></p>
<p><code>Cover MIME                     : image/jpeg</code></p>
<p><code>ALBUMTITLE                     : hopeless fountain kingdom</code></p>
<h1><code>Audio</code></h1>
<p><code>Format                         : FLAC</code></p>
<p><code>Format/Info                    : Free Lossless Audio Codec</code></p>
<p><code>Duration                       : 3mn 22s</code></p>
<p><code>Bit rate mode                  : Variable</code></p>
<p><code>Bit rate                       : 947 Kbps</code></p>
<p><code>Channel(s)                     : 2 channels</code></p>
<p><code>Sampling rate                  : 44.1 KHz</code></p>
<p><code>Bit depth                      : 16 bits</code></p>
<p><code>Stream size                    : 22.9 MiB (98%)</code></p>
<p><code>Writing library                : libFLAC 1.2.1 (UTC 2007-09-17)</code></p>
<h2>---</h2>
<hr>
<h1><code>General</code></h1>
<p><code>Complete name                  : 01 - Castle.flac</code></p>
<p><code>Format                         : FLAC</code></p>
<p><code>Format/Info                    : Free Lossless Audio Codec</code></p>
<p><code>File size                      : 30.4 MiB</code></p>
<p><code>Duration                       : 4mn 37s</code></p>
<p><code>Overall bit rate mode          : Variable</code></p>
<p><code>Overall bit rate               : 918 Kbps</code></p>
<p><code>Album                          : BADLANDS (Deluxe Edition)</code></p>
<p><code>Album/Performer                : Halsey</code></p>
<p><code>Part                           : 1</code></p>
<p><code>Track name                     : Castle</code></p>
<p><code>Track name/Position            : 1</code></p>
<p><code>Track name/Total               : 16</code></p>
<p><code>Performer                      : Halsey</code></p>
<p><code>Genre                          : Indie Pop</code></p>
<p><code>Recorded date                  : 2015</code></p>
<p><code>Cover                          : Yes</code></p>
<p><code>Cover type                     : Cover (front)</code></p>
<p><code>Cover MIME                     : image/jpeg</code></p>
<h1><code>Audio</code></h1>
<p><code>Format                         : FLAC</code></p>
<p><code>Format/Info                    : Free Lossless Audio Codec</code></p>
<p><code>Duration                       : 4mn 37s</code></p>
<p><code>Bit rate mode                  : Variable</code></p>
<p><code>Bit rate                       : 916 Kbps</code></p>
<p><code>Channel(s)                     : 2 channels</code></p>
<p><code>Sampling rate                  : 44.1 KHz</code></p>
<p><code>Bit depth                      : 16 bits</code></p>
<p><code>Stream size                    : 30.3 MiB (100%)</code></p>
<p><code>Writing library                : libFLAC 1.2.1 (UTC 2007-09-17)</code></p></p>
    <p class="toolbar">
        <a href="https://www.reddit.com/r/megalinks/comments/6sehe2">permalink</a>
    </p>
</div>
<div class="comment" id="t1_dliq4jo">
    <p class="userinfo">
        <a
        class="toggle_hide_button"
        href="javascript:void(0)"
        onclick="toggle_collapse(this.parentElement.parentElement)">[-]
        </a>
        <a href="https://www.reddit.com/u/bisdakexplorer">bisdakexplorer</a>
        <span class="score"> | 2 points</span>
        <span class="timestamp"> | Aug 12 2017 14:25:01</span>
    </p>
    <div class="collapsible">
        <p>Super thanks!!!</p>
        <p class="toolbar">
            <a href="https://www.reddit.com/r/megalinks/comments/6sehe2/_/dliq4jo">permalink</a>
        </p>
        <div class="comment" id="t1_dlivl7a">
    <p class="userinfo">
        <a
        class="toggle_hide_button"
        href="javascript:void(0)"
        onclick="toggle_collapse(this.parentElement.parentElement)">[-]
        </a>
        <a href="https://www.reddit.com/u/Ed_ButteredToast">Ed_ButteredToast</a>
        <span class="score"> | 1 points</span>
        <span class="timestamp"> | Aug 12 2017 16:27:42</span>
    </p>
    <div class="collapsible">
        <p>No problem! :)</p>
        <p class="toolbar">
            <a href="https://www.reddit.com/r/megalinks/comments/6sehe2/_/dlivl7a">permalink</a>
        </p>
        
    </div>
</div>
    </div>
</div>
</body>

<script>
function toggle_collapse(comment_div)
{
    var button = comment_div.getElementsByClassName("toggle_hide_button")[0];
    var collapsible = comment_div.getElementsByClassName("collapsible")[0];
    if (collapsible.classList.contains("hidden"))
    {
        collapsible.classList.remove("hidden");
        button.innerText = "[-]";
    }
    else
    {
        collapsible.classList.add("hidden");
        button.innerText = "[+]";
    }
}
</script>
</html>
